<svg width="800" height="800" viewBox="0 0 800 800" fill="none" xmlns="http://www.w3.org/2000/svg">
<path d="M700 100L700 700L74 700M531.534 428.333L171.534 428.333C152.865 428.333 143.531 428.333 136.401 431.966C130.129 435.162 125.029 440.262 121.833 446.534C118.2 453.664 118.2 462.998 118.2 481.667V541.667C118.2 560.335 118.2 569.669 121.833 576.8C125.029 583.072 130.129 588.171 136.401 591.367C143.531 595 152.865 595 171.534 595H531.534C550.204 595 559.537 595 566.667 591.367C572.94 588.171 578.037 583.072 581.234 576.8C584.867 569.669 584.867 560.335 584.867 541.667V481.667C584.867 462.998 584.867 453.664 581.234 446.534C578.037 440.262 572.94 435.162 566.667 431.966C559.537 428.333 550.204 428.333 531.534 428.333ZM531.534 128.333H371.534C352.864 128.333 343.531 128.333 336.401 131.967C330.129 135.163 325.029 140.26 321.833 146.533C318.2 153.663 318.2 162.997 318.2 181.667V241.667C318.2 260.337 318.2 269.67 321.833 276.8C325.029 283.073 330.129 288.17 336.401 291.367C343.531 295 352.864 295 371.534 295H531.534C550.204 295 559.537 295 566.667 291.367C572.94 288.17 578.037 283.073 581.234 276.8C584.867 269.67 584.867 260.337 584.867 241.667V181.667C584.867 162.997 584.867 153.663 581.234 146.533C578.037 140.26 572.94 135.163 566.667 131.967C559.537 128.333 550.204 128.333 531.534 128.333Z" stroke="#FEFEFE" stroke-width="66.6667" stroke-linecap="round" stroke-linejoin="round"/>
</svg>
