<svg width="800" height="800" viewBox="0 0 800 800" fill="none" xmlns="http://www.w3.org/2000/svg">
<path d="M100 700H700M220 566.667H280C298.668 566.667 308.003 566.667 315.133 563.033C321.405 559.837 326.504 554.74 329.7 548.467C333.333 541.337 333.333 532.003 333.333 513.333V153.333C333.333 134.665 333.333 125.331 329.7 118.2C326.504 111.928 321.405 106.829 315.133 103.633C308.003 100 298.668 100 280 100H220C201.332 100 191.997 100 184.867 103.633C178.595 106.829 173.496 111.928 170.3 118.2C166.667 125.331 166.667 134.665 166.667 153.333V513.333C166.667 532.003 166.667 541.337 170.3 548.467C173.496 554.74 178.595 559.837 184.867 563.033C191.997 566.667 201.332 566.667 220 566.667ZM520 566.667H580C598.67 566.667 608.003 566.667 615.133 563.033C621.407 559.837 626.503 554.74 629.7 548.467C633.333 541.337 633.333 532.003 633.333 513.333V353.333C633.333 334.663 633.333 325.331 629.7 318.2C626.503 311.928 621.407 306.829 615.133 303.633C608.003 300 598.67 300 580 300H520C501.33 300 491.997 300 484.867 303.633C478.593 306.829 473.497 311.928 470.3 318.2C466.667 325.331 466.667 334.663 466.667 353.333V513.333C466.667 532.003 466.667 541.337 470.3 548.467C473.497 554.74 478.593 559.837 484.867 563.033C491.997 566.667 501.33 566.667 520 566.667Z" stroke="#FEFEFE" stroke-width="66.6667" stroke-linecap="round" stroke-linejoin="round"/>
</svg>
