<svg width="800" height="800" viewBox="0 0 800 800" fill="none" xmlns="http://www.w3.org/2000/svg">
<path d="M100 100L100 700L726 700M268.466 428.333L628.466 428.333C647.135 428.333 656.469 428.333 663.599 431.966C669.871 435.162 674.971 440.262 678.167 446.534C681.8 453.664 681.8 462.998 681.8 481.667V541.667C681.8 560.335 681.8 569.669 678.167 576.8C674.971 583.072 669.871 588.171 663.599 591.367C656.469 595 647.135 595 628.466 595H268.466C249.796 595 240.463 595 233.333 591.367C227.06 588.171 221.963 583.072 218.766 576.8C215.133 569.669 215.133 560.335 215.133 541.667V481.667C215.133 462.998 215.133 453.664 218.766 446.534C221.963 440.262 227.06 435.162 233.333 431.966C240.463 428.333 249.796 428.333 268.466 428.333ZM268.466 128.333H428.466C447.136 128.333 456.469 128.333 463.599 131.967C469.871 135.163 474.971 140.26 478.167 146.533C481.8 153.663 481.8 162.997 481.8 181.667V241.667C481.8 260.337 481.8 269.67 478.167 276.8C474.971 283.073 469.871 288.17 463.599 291.367C456.469 295 447.136 295 428.466 295H268.466C249.796 295 240.463 295 233.333 291.367C227.06 288.17 221.963 283.073 218.766 276.8C215.133 269.67 215.133 260.337 215.133 241.667V181.667C215.133 162.997 215.133 153.663 218.766 146.533C221.963 140.26 227.06 135.163 233.333 131.967C240.463 128.333 249.796 128.333 268.466 128.333Z" stroke="#FEFEFE" stroke-width="66.6667" stroke-linecap="round" stroke-linejoin="round"/>
</svg>
