<svg width="800" height="800" viewBox="0 0 800 800" fill="none" xmlns="http://www.w3.org/2000/svg">
<path d="M400 166.667V100M400 700V633.333M400 466.667V333.333M220 333.333H580C598.67 333.333 608.003 333.333 615.133 329.7C621.407 326.504 626.503 321.405 629.7 315.133C633.333 308.003 633.333 298.668 633.333 280V220C633.333 201.332 633.333 191.997 629.7 184.867C626.503 178.595 621.407 173.496 615.133 170.3C608.003 166.667 598.67 166.667 580 166.667H220C201.331 166.667 191.997 166.667 184.867 170.3C178.595 173.496 173.496 178.595 170.3 184.867C166.667 191.997 166.667 201.332 166.667 220V280C166.667 298.668 166.667 308.003 170.3 315.133C173.496 321.405 178.595 326.504 184.867 329.7C191.997 333.333 201.331 333.333 220 333.333ZM320 633.333H480C498.67 633.333 508.003 633.333 515.133 629.7C521.407 626.503 526.503 621.407 529.7 615.133C533.333 608.003 533.333 598.67 533.333 580V520C533.333 501.33 533.333 491.997 529.7 484.867C526.503 478.593 521.407 473.497 515.133 470.3C508.003 466.667 498.67 466.667 480 466.667H320C301.332 466.667 291.997 466.667 284.867 470.3C278.595 473.497 273.495 478.593 270.299 484.867C266.666 491.997 266.667 501.33 266.667 520V580C266.667 598.67 266.666 608.003 270.299 615.133C273.495 621.407 278.595 626.503 284.867 629.7C291.997 633.333 301.332 633.333 320 633.333Z" stroke="#FEFEFE" stroke-width="66.6667" stroke-linecap="round" stroke-linejoin="round"/>
</svg>
