<svg width="800" height="800" viewBox="0 0 800 800" fill="none" xmlns="http://www.w3.org/2000/svg">
<path d="M100 100V700M286.667 333.333H646.667C665.337 333.333 674.67 333.333 681.8 329.7C688.073 326.504 693.17 321.405 696.367 315.133C700 308.003 700 298.668 700 280V220C700 201.332 700 191.997 696.367 184.867C693.17 178.595 688.073 173.496 681.8 170.3C674.67 166.667 665.337 166.667 646.667 166.667H286.667C267.998 166.667 258.664 166.667 251.534 170.3C245.262 173.496 240.162 178.595 236.966 184.867C233.333 191.997 233.333 201.332 233.333 220V280C233.333 298.668 233.333 308.003 236.966 315.133C240.162 321.405 245.262 326.504 251.534 329.7C258.664 333.333 267.998 333.333 286.667 333.333ZM286.667 633.333H446.667C465.337 633.333 474.67 633.333 481.8 629.7C488.073 626.503 493.17 621.407 496.367 615.133C500 608.003 500 598.67 500 580V520C500 501.33 500 491.997 496.367 484.867C493.17 478.593 488.073 473.497 481.8 470.3C474.67 466.667 465.337 466.667 446.667 466.667H286.667C267.998 466.667 258.664 466.667 251.534 470.3C245.262 473.497 240.162 478.593 236.966 484.867C233.333 491.997 233.333 501.33 233.333 520V580C233.333 598.67 233.333 608.003 236.966 615.133C240.162 621.407 245.262 626.503 251.534 629.7C258.664 633.333 267.998 633.333 286.667 633.333Z" stroke="#FEFEFE" stroke-width="66.6667" stroke-linecap="round" stroke-linejoin="round"/>
</svg>
