<svg width="800" height="800" viewBox="0 0 800 800" fill="none" xmlns="http://www.w3.org/2000/svg">
<path d="M700 100V700M513.333 333.333H153.333C134.665 333.333 125.331 333.333 118.2 329.7C111.928 326.504 106.829 321.405 103.633 315.133C100 308.003 100 298.668 100 280V220C100 201.332 100 191.997 103.633 184.867C106.829 178.595 111.928 173.496 118.2 170.3C125.331 166.667 134.665 166.667 153.333 166.667H513.333C532.003 166.667 541.337 166.667 548.467 170.3C554.74 173.496 559.837 178.595 563.033 184.867C566.667 191.997 566.667 201.332 566.667 220V280C566.667 298.668 566.667 308.003 563.033 315.133C559.837 321.405 554.74 326.504 548.467 329.7C541.337 333.333 532.003 333.333 513.333 333.333ZM513.333 633.333H353.333C334.663 633.333 325.331 633.333 318.2 629.7C311.928 626.503 306.829 621.407 303.633 615.133C300 608.003 300 598.67 300 580V520C300 501.33 300 491.997 303.633 484.867C306.829 478.593 311.928 473.497 318.2 470.3C325.331 466.667 334.663 466.667 353.333 466.667H513.333C532.003 466.667 541.337 466.667 548.467 470.3C554.74 473.497 559.837 478.593 563.033 484.867C566.667 491.997 566.667 501.33 566.667 520V580C566.667 598.67 566.667 608.003 563.033 615.133C559.837 621.407 554.74 626.503 548.467 629.7C541.337 633.333 532.003 633.333 513.333 633.333Z" stroke="#FEFEFE" stroke-width="66.6667" stroke-linecap="round" stroke-linejoin="round"/>
</svg>
