<svg width="800" height="800" viewBox="0 0 800 800" fill="none" xmlns="http://www.w3.org/2000/svg">
<path d="M100 700V100H726M268.466 371.667H628.466C647.135 371.667 656.469 371.667 663.599 368.034C669.871 364.838 674.971 359.738 678.167 353.466C681.8 346.336 681.8 337.002 681.8 318.333V258.333C681.8 239.665 681.8 230.331 678.167 223.2C674.971 216.928 669.871 211.829 663.599 208.633C656.469 205 647.135 205 628.466 205H268.466C249.796 205 240.463 205 233.333 208.633C227.06 211.829 221.963 216.928 218.766 223.2C215.133 230.331 215.133 239.665 215.133 258.333V318.333C215.133 337.002 215.133 346.336 218.766 353.466C221.963 359.738 227.06 364.838 233.333 368.034C240.463 371.667 249.796 371.667 268.466 371.667ZM268.466 671.667H428.466C447.136 671.667 456.469 671.667 463.599 668.033C469.871 664.837 474.971 659.74 478.167 653.467C481.8 646.337 481.8 637.003 481.8 618.333V558.333C481.8 539.663 481.8 530.33 478.167 523.2C474.971 516.927 469.871 511.83 463.599 508.633C456.469 505 447.136 505 428.466 505H268.466C249.796 505 240.463 505 233.333 508.633C227.06 511.83 221.963 516.927 218.766 523.2C215.133 530.33 215.133 539.663 215.133 558.333V618.333C215.133 637.003 215.133 646.337 218.766 653.467C221.963 659.74 227.06 664.837 233.333 668.033C240.463 671.667 249.796 671.667 268.466 671.667Z" stroke="#FEFEFE" stroke-width="66.6667" stroke-linecap="round" stroke-linejoin="round"/>
</svg>
