<svg width="800" height="800" viewBox="0 0 800 800" fill="none" xmlns="http://www.w3.org/2000/svg">
<path d="M700 100H100M166.667 646.667V286.667C166.667 267.998 166.667 258.664 170.3 251.534C173.496 245.262 178.595 240.162 184.867 236.966C191.997 233.333 201.332 233.333 220 233.333H280C298.668 233.333 308.003 233.333 315.133 236.966C321.405 240.162 326.504 245.262 329.7 251.534C333.333 258.664 333.333 267.998 333.333 286.667V646.667C333.333 665.337 333.333 674.67 329.7 681.8C326.504 688.073 321.405 693.17 315.133 696.367C308.003 700 298.668 700 280 700H220C201.332 700 191.997 700 184.867 696.367C178.595 693.17 173.496 688.073 170.3 681.8C166.667 674.67 166.667 665.337 166.667 646.667ZM466.667 446.667V286.667C466.667 267.998 466.667 258.664 470.3 251.534C473.497 245.262 478.593 240.162 484.867 236.966C491.997 233.333 501.33 233.333 520 233.333H580C598.67 233.333 608.003 233.333 615.133 236.966C621.407 240.162 626.503 245.262 629.7 251.534C633.333 258.664 633.333 267.998 633.333 286.667V446.667C633.333 465.337 633.333 474.67 629.7 481.8C626.503 488.073 621.407 493.17 615.133 496.367C608.003 500 598.67 500 580 500H520C501.33 500 491.997 500 484.867 496.367C478.593 493.17 473.497 488.073 470.3 481.8C466.667 474.67 466.667 465.337 466.667 446.667Z" stroke="#FEFEFE" stroke-width="66.6667" stroke-linecap="round" stroke-linejoin="round"/>
</svg>
