<svg width="800" height="800" viewBox="0 0 800 800" fill="none" xmlns="http://www.w3.org/2000/svg">
<path d="M700 700V100H74M531.534 371.667H171.534C152.865 371.667 143.531 371.667 136.401 368.034C130.129 364.838 125.029 359.738 121.833 353.466C118.2 346.336 118.2 337.002 118.2 318.333V258.333C118.2 239.665 118.2 230.331 121.833 223.2C125.029 216.928 130.129 211.829 136.401 208.633C143.531 205 152.865 205 171.534 205H531.534C550.204 205 559.537 205 566.667 208.633C572.94 211.829 578.037 216.928 581.234 223.2C584.867 230.331 584.867 239.665 584.867 258.333V318.333C584.867 337.002 584.867 346.336 581.234 353.466C578.037 359.738 572.94 364.838 566.667 368.034C559.537 371.667 550.204 371.667 531.534 371.667ZM531.534 671.667H371.534C352.864 671.667 343.531 671.667 336.401 668.033C330.129 664.837 325.029 659.74 321.833 653.467C318.2 646.337 318.2 637.003 318.2 618.333V558.333C318.2 539.663 318.2 530.33 321.833 523.2C325.029 516.927 330.129 511.83 336.401 508.633C343.531 505 352.864 505 371.534 505H531.534C550.204 505 559.537 505 566.667 508.633C572.94 511.83 578.037 516.927 581.234 523.2C584.867 530.33 584.867 539.663 584.867 558.333V618.333C584.867 637.003 584.867 646.337 581.234 653.467C578.037 659.74 572.94 664.837 566.667 668.033C559.537 671.667 550.204 671.667 531.534 671.667Z" stroke="#FEFEFE" stroke-width="66.6667" stroke-linecap="round" stroke-linejoin="round"/>
<path d="M700 700V100H74M531.534 371.667H171.534C152.865 371.667 143.531 371.667 136.401 368.034C130.129 364.838 125.029 359.738 121.833 353.466C118.2 346.336 118.2 337.002 118.2 318.333V258.333C118.2 239.665 118.2 230.331 121.833 223.2C125.029 216.928 130.129 211.829 136.401 208.633C143.531 205 152.865 205 171.534 205H531.534C550.204 205 559.537 205 566.667 208.633C572.94 211.829 578.037 216.928 581.234 223.2C584.867 230.331 584.867 239.665 584.867 258.333V318.333C584.867 337.002 584.867 346.336 581.234 353.466C578.037 359.738 572.94 364.838 566.667 368.034C559.537 371.667 550.204 371.667 531.534 371.667ZM531.534 671.667H371.534C352.864 671.667 343.531 671.667 336.401 668.033C330.129 664.837 325.029 659.74 321.833 653.467C318.2 646.337 318.2 637.003 318.2 618.333V558.333C318.2 539.663 318.2 530.33 321.833 523.2C325.029 516.927 330.129 511.83 336.401 508.633C343.531 505 352.864 505 371.534 505H531.534C550.204 505 559.537 505 566.667 508.633C572.94 511.83 578.037 516.927 581.234 523.2C584.867 530.33 584.867 539.663 584.867 558.333V618.333C584.867 637.003 584.867 646.337 581.234 653.467C578.037 659.74 572.94 664.837 566.667 668.033C559.537 671.667 550.204 671.667 531.534 671.667Z" stroke="#FEFEFE" stroke-width="66.6667" stroke-linecap="round" stroke-linejoin="round"/>
</svg>
